<?xml version="1.0" encoding="UTF-8" standalone="no"?>
<!-- Created with Inkscape (http://www.inkscape.org/) -->

<svg
   xmlns:dc="http://purl.org/dc/elements/1.1/"
   xmlns:cc="http://creativecommons.org/ns#"
   xmlns:rdf="http://www.w3.org/1999/02/22-rdf-syntax-ns#"
   xmlns:svg="http://www.w3.org/2000/svg"
   xmlns="http://www.w3.org/2000/svg"
   xmlns:sodipodi="http://sodipodi.sourceforge.net/DTD/sodipodi-0.dtd"
   xmlns:inkscape="http://www.inkscape.org/namespaces/inkscape"
   width="1052.3622"
   height="744.09448"
   id="svg3226"
   version="1.1"
   inkscape:version="0.91 r13725"
   sodipodi:docname="idea simplex.svg">
  <defs
     id="defs3228" />
  <sodipodi:namedview
     id="base"
     pagecolor="#ffffff"
     bordercolor="#666666"
     borderopacity="1.0"
     inkscape:pageopacity="0.0"
     inkscape:pageshadow="2"
     inkscape:zoom="0.95283599"
     inkscape:cx="526.18109"
     inkscape:cy="372.04724"
     inkscape:document-units="px"
     inkscape:current-layer="layer1"
     showgrid="false"
     inkscape:window-width="1440"
     inkscape:window-height="851"
     inkscape:window-x="0"
     inkscape:window-y="1"
     inkscape:window-maximized="1" />
  <metadata
     id="metadata3231">
    <rdf:RDF>
      <cc:Work
         rdf:about="">
        <dc:format>image/svg+xml</dc:format>
        <dc:type
           rdf:resource="http://purl.org/dc/dcmitype/StillImage" />
        <dc:title />
      </cc:Work>
    </rdf:RDF>
  </metadata>
  <g
     inkscape:label="Layer 1"
     inkscape:groupmode="layer"
     id="layer1"
     transform="translate(0,-308.2677)">
    <g
       id="g3350"
       transform="matrix(1.0614815,0,0,1.0614815,-69.397598,-41.826787)">
      <path
         d="m 83.118284,592.10358 23.869646,0 0,176.42275 -23.869646,0 0,-176.42275"
         style="font-style:normal;font-weight:normal;font-size:175.34698486px;line-height:125%;font-family:Sans;letter-spacing:0px;word-spacing:0px;fill:#000000;fill-opacity:1;stroke:none"
         id="path3239"
         inkscape:connector-curvature="0" />
      <path
         d="m 158.71631,611.71922 0,137.19142 28.83266,0 c 24.34221,4e-5 42.14597,-5.5144 53.4113,-16.54332 11.34385,-11.02884 17.01584,-28.43869 17.016,-52.22964 -1.6e-4,-23.63321 -5.67215,-40.9249 -17.016,-51.87513 -11.26533,-11.02875 -29.06909,-16.54317 -53.4113,-16.54333 l -28.83266,0 m -23.86966,-19.61566 49.03915,0 c 34.18943,1.8e-4 59.2801,7.12955 75.27212,21.38816 15.99171,14.18013 23.98765,36.39544 23.98783,66.64596 -1.8e-4,30.40828 -8.0355,52.74173 -24.10598,67.00047 -16.07081,14.25879 -41.1221,21.38816 -75.15397,21.38816 l -49.03915,0 0,-176.42275"
         style="font-style:normal;font-weight:normal;font-size:175.34698486px;line-height:125%;font-family:Sans;letter-spacing:0px;word-spacing:0px;fill:#000000;fill-opacity:1;stroke:none"
         id="path3241"
         inkscape:connector-curvature="0" />
      <path
         inkscape:connector-curvature="0"
         id="path3243"
         d="m 311.00444,592.09314 0,176.4436 454.54391,0 0,-20.09844 -431.34013,0 0,-63.91821 403.56461,0 0,-20.09844 -403.56461,0 0,-52.23007 421.07527,0 0,-20.09844 -444.27905,0 z"
         style="font-style:normal;font-weight:normal;font-size:175.34698486px;line-height:125%;font-family:Sans;letter-spacing:0px;word-spacing:0px;fill:#000000;fill-opacity:1;stroke:none" />
      <path
         id="path3245"
         d="m 793.42303,592.09314 0,27.47362 63.01249,17.55378 0,86.77696 -63.01249,17.5538 0,27.08544 245.62367,-73.40674 0,-29.50072 -245.62367,-73.53614 z"
         style="font-style:normal;font-weight:normal;font-size:175.34698486px;line-height:125%;font-family:Sans;letter-spacing:0px;word-spacing:0px;fill:#000000;fill-opacity:1;stroke:none"
         inkscape:connector-curvature="0" />
    </g>
  </g>
</svg>
